<svg width="22" height="20" viewBox="0 0 22 20" fill="none" xmlns="http://www.w3.org/2000/svg">
<path d="M19.7084 6.10418H17.6622L12.7269 1.16907C12.5107 0.952739 12.2229 0.833344 11.9167 0.833344C11.6106 0.833344 11.3227 0.952739 11.1066 1.16907C11.0665 1.20918 11.0333 1.25386 11.0001 1.29855C10.9669 1.25386 10.9336 1.20918 10.8937 1.16907C10.4471 0.722427 9.71996 0.722427 9.27331 1.16907L4.33798 6.10418H2.29175C1.53344 6.10418 0.916748 6.72086 0.916748 7.47918V8.39584C0.916748 9.15416 1.53344 9.77084 2.29175 9.77084H19.7084C20.4667 9.77084 21.0834 9.15416 21.0834 8.39584V7.47918C21.0834 6.72086 20.4667 6.10418 19.7084 6.10418ZM10.8937 2.78928C10.9339 2.74918 10.9669 2.70449 11.0001 2.6598C11.0333 2.70449 11.0665 2.74918 11.1066 2.78928L14.4213 6.10418H7.57885L10.8937 2.78928ZM3.44652 17.4284C3.60694 18.5502 4.58227 19.3958 5.71527 19.3958H16.2851C17.4181 19.3958 18.3935 18.5502 18.5536 17.4284L19.5166 10.6875H2.48356L3.44652 17.4284ZM13.7501 12.9792C13.7501 12.7259 13.9552 12.5208 14.2084 12.5208H15.1251C15.3783 12.5208 15.5834 12.7259 15.5834 12.9792V17.1042C15.5834 17.3574 15.3783 17.5625 15.1251 17.5625H14.2084C13.9552 17.5625 13.7501 17.3574 13.7501 17.1042V12.9792ZM10.0834 12.9792C10.0834 12.7259 10.2885 12.5208 10.5417 12.5208H11.4584C11.7116 12.5208 11.9167 12.7259 11.9167 12.9792V17.1042C11.9167 17.3574 11.7116 17.5625 11.4584 17.5625H10.5417C10.2885 17.5625 10.0834 17.3574 10.0834 17.1042V12.9792ZM6.41675 12.9792C6.41675 12.7259 6.62185 12.5208 6.87508 12.5208H7.79175C8.04498 12.5208 8.25008 12.7259 8.25008 12.9792V17.1042C8.25008 17.3574 8.04498 17.5625 7.79175 17.5625H6.87508C6.62185 17.5625 6.41675 17.3574 6.41675 17.1042V12.9792Z" fill="#F2F2F2"/>
</svg>
